<?xml version="1.0" encoding="utf-8"?>
<!-- Generator: Adobe Illustrator 27.9.0, SVG Export Plug-In . SVG Version: 6.00 Build 0)  -->
<svg version="1.0" id="Layer_1" xmlns="http://www.w3.org/2000/svg" xmlns:xlink="http://www.w3.org/1999/xlink" x="0px" y="0px"
	 viewBox="0 0 435.7 296.1" style="enable-background:new 0 0 435.7 296.1;" xml:space="preserve">
<style type="text/css">
	.st0{fill:none;stroke:#000000;stroke-width:7.1;}
</style>
<g transform="translate(0 125.59)">
	<path d="M105.6,29.65l6.2-16.3l6.2,16.3l1.1,2.9l4.6,12.1h6.5l-16-40.1h-4.6l-16.4,40.1h6.6l4.6-12.1L105.6,29.65z"/>
	<path d="M236.7,10.05v-5.5h-27.1v40.1h5.9v-18.7h19v-5.5h-19v-10.4H236.7z"/>
	<path d="M261.1,4.55h6v40.1h-6V4.55z"/>
	<path d="M323,10.25v-5.7h-27v40.1h28.4v-5.7H302v-12h19v-5.7h-19v-11L323,10.25z"/>
	<path d="M430.3,5.35h0.9v2.7h0.4v-2.7h0.9v-0.4h-2.2L430.3,5.35z"/>
	<path d="M435.3,4.95l-1,1.9l-0.9-1.9H433v3.1h0.4v-2.2l0.7,1.4h0.4l0.8-1.4v2.2h0.4v-3.1H435.3z"/>
	<path d="M422.1,5.75c-2.8-1.1-6.2-1.1-10.1-1.2h-11.8v40.2h11c6.3,0,10.1,0,13.9-3c4.6-3.6,7.2-9.8,7.2-17.2
		C432.3,15.55,428.3,8.15,422.1,5.75z M420.1,38.05c-2.2,1-6.2,1-8.6,1h-5.3v-28.8h5.4c4.5,0,6.4,0,8.3,0.8
		c3.9,1.7,6.4,7.2,6.4,13.6C426.3,31.95,423.2,36.65,420.1,38.05L420.1,38.05z"/>
	<path d="M15.9,8.95c3.1,0,5.7,1.2,7.2,3.3c0.5,0.6,0.8,1.3,1.1,2l0.3,0.8H31l-0.4-1.5c-1.3-4.6-5.9-10-14.6-10
		c-6.6,0-13.7,2.9-13.7,11c0,8.4,7.7,10.3,12.3,11.5l0.4,0.1c4.5,1.2,6.5,1.7,8,3c1.2,1,1.9,2.5,1.8,4.1c0,3.1-2.4,6.8-9.3,6.8
		c-1.9,0-6.6-0.4-8.5-4.2c-0.4-0.8-0.6-1.7-0.7-2.6l0.1-1.1H0l0.2,1.4c0.7,4,2.8,7.5,5.9,9.6c2.5,1.6,5.8,2.5,9.5,2.5
		c10,0,15.3-6.3,15.3-12.5c0-3.7-1.7-8.7-9.5-11.1c-0.7-0.3-2.8-0.8-5.4-1.5c-1.1-0.3-2-0.5-2.3-0.6c-2.9-0.9-5.5-2.1-5.5-5.4
		C8.3,9.15,14.7,8.95,15.9,8.95z"/>
	<path d="M182.7,16.55c0-3.1-0.8-9.2-7.5-11.3c-2.5-0.8-7.9-0.6-10.6-0.6h-12.1v40.1h6v-16.8h7.1l11.9,16.7h7.5l-12.4-17
		c2.1-0.3,4.8-1,7-3.1C181.6,22.55,182.7,19.75,182.7,16.55z M172.3,22.05c-2,0.3-4.1,0.4-6.1,0.3h-7.7v-12.3h8
		c4.5,0,4.8,0.1,5.7,0.2c3.9,0.8,4.5,4.1,4.5,6S176.2,21.25,172.3,22.05z"/>
</g>
<path id="starfield-top-T" d="M80,130.15v5.5H50.2v-5.5H80z"/>
<path id="starfield-bottom-L" d="M377.7,164.55v5.8h-29.6c0.2-1.3,0.5-3.2,0.8-5.8H377.7L377.7,164.55z"/>
<path id="starfield-arc-T" class="st0" d="M65.6,130.35c-0.7,5.8-1.1,11.7-1.1,17.7c0,6.1,0.4,12.2,1.1,18.1
	c8.9,71.3,69.7,126.4,143.4,126.4c67.06,0,123.48-45.69,139.75-107.65"/>
<path id="starfield-arc-L" class="st0" d="M351.9,169.85c1.1-7.1,1.6-14.4,1.6-21.8c0-79.8-64.7-144.5-144.5-144.5
	c-68.76,0-126.32,48.05-140.94,112.33"/>
</svg>
