<?xml version="1.0" encoding="utf-8"?>
<!-- Generator: Adobe Illustrator 27.9.0, SVG Export Plug-In . SVG Version: 6.00 Build 0)  -->
<svg version="1.0" id="Layer_1" xmlns="http://www.w3.org/2000/svg" xmlns:xlink="http://www.w3.org/1999/xlink" x="0px" y="0px"
	 viewBox="0 0 220 60" style="enable-background:new 0 0 220 60;" xml:space="preserve">
<g>
	<g>
		<path d="M1.28,31.07c0,0.31,0.11,0.58,0.33,0.8C1.83,32.09,2.1,32.2,2.4,32.2h1.51c0.31,0,0.59-0.11,0.8-0.33
			c0.22-0.22,0.33-0.49,0.33-0.8c0-0.32-0.18-0.63-0.42-0.85C4.52,30.11,4.37,30,4.17,29.88c-0.19-0.12-0.36-0.21-0.53-0.29
			c-0.16-0.08-0.36-0.17-0.59-0.27l-0.5-0.21c-0.12-0.06-0.28-0.13-0.47-0.23c-0.19-0.1-0.35-0.19-0.47-0.27
			c-0.24-0.17-0.56-0.43-0.72-0.68S0.62,27.35,0.62,27c0-0.49,0.18-0.91,0.52-1.26c0.35-0.35,0.77-0.52,1.26-0.52h1.5
			c0.5,0,0.92,0.17,1.27,0.52c0.35,0.35,0.53,0.76,0.53,1.25H5.05c0-0.3-0.11-0.56-0.34-0.78c-0.22-0.22-0.49-0.33-0.8-0.33H2.4
			c-0.31,0-0.58,0.11-0.79,0.33C1.39,26.42,1.28,26.69,1.28,27c0,0.32,0.18,0.63,0.4,0.85c0.12,0.11,0.27,0.22,0.46,0.34
			c0.19,0.11,0.37,0.21,0.52,0.29c0.16,0.07,0.36,0.16,0.59,0.26c0.21,0.09,0.37,0.15,0.5,0.21c0.13,0.06,0.29,0.13,0.48,0.23
			c0.2,0.1,0.35,0.19,0.47,0.28c0.24,0.17,0.56,0.43,0.72,0.68c0.17,0.25,0.29,0.58,0.29,0.93c0,0.49-0.18,0.91-0.53,1.26
			c-0.35,0.35-0.77,0.53-1.26,0.53H2.4c-0.49,0-0.91-0.18-1.26-0.53c-0.35-0.35-0.52-0.77-0.52-1.26H1.28z"/>
		<path d="M6.97,26.73c0-0.42,0.14-0.77,0.43-1.06c0.29-0.29,0.64-0.44,1.06-0.44h2.1c0.42,0,0.77,0.15,1.05,0.44
			c0.29,0.29,0.44,0.65,0.44,1.06H11.4c0-0.23-0.08-0.44-0.25-0.6s-0.36-0.25-0.59-0.25h-2.1c-0.23,0-0.43,0.08-0.59,0.25
			s-0.25,0.37-0.25,0.6v4.63c0,0.23,0.08,0.43,0.25,0.6s0.36,0.25,0.59,0.25h2.1c0.22,0,0.42-0.08,0.59-0.25s0.25-0.36,0.25-0.59
			h0.66c0,0.42-0.14,0.77-0.44,1.06c-0.29,0.29-0.64,0.44-1.05,0.44h-2.1c-0.42,0-0.77-0.14-1.06-0.44
			c-0.29-0.29-0.43-0.64-0.43-1.06V26.73z"/>
		<path d="M13.32,32.86v-7.64h3.29c0.5,0,0.92,0.18,1.26,0.52c0.35,0.35,0.53,0.77,0.53,1.26v0.59c0,0.49-0.18,0.91-0.53,1.26
			c-0.35,0.35-0.77,0.52-1.26,0.52H16.4l1.91,2.14c0.06,0.07,0.1,0.2,0.1,0.36v0.99h-0.66v-0.98l-2.21-2.51h-1.56v3.49H13.32z
			 M13.98,28.71h2.64c0.31,0,0.58-0.11,0.8-0.33c0.22-0.22,0.33-0.49,0.33-0.79V27c0-0.31-0.11-0.58-0.33-0.79
			c-0.22-0.22-0.48-0.33-0.8-0.33h-2.64V28.71z"/>
		<path d="M19.67,32.86V32.2h2.21v-6.33h-2.21v-0.66h5.08v0.66h-2.22v6.33h2.22v0.66H19.67z"/>
		<path d="M26.02,32.86v-7.64h3.29c0.5,0,0.91,0.18,1.26,0.52c0.35,0.35,0.52,0.77,0.52,1.26v0.59c0,0.49-0.18,0.91-0.52,1.26
			c-0.35,0.35-0.76,0.52-1.26,0.52h-2.64v3.49H26.02z M26.68,28.71h2.64c0.31,0,0.58-0.11,0.8-0.33c0.22-0.22,0.33-0.49,0.33-0.79
			V27c0-0.31-0.11-0.58-0.33-0.79c-0.22-0.22-0.48-0.33-0.8-0.33h-2.64V28.71z"/>
		<path d="M32.37,25.87v-0.66h5.08v0.66h-2.22v6.98h-0.66v-6.98H32.37z"/>
		<path d="M45.08,32.86v-7.64h5.08v0.66h-4.43v2.84h4.43v0.66h-4.43v2.83h4.43v0.66H45.08z"/>
		<path d="M51.42,32.86v-0.77c0-0.25,0.02-0.43,0.04-0.53c0.03-0.11,0.11-0.23,0.24-0.39l1.79-2.11l-1.8-2.11
			c-0.13-0.15-0.21-0.28-0.23-0.38c-0.03-0.11-0.04-0.28-0.04-0.52v-0.82h0.66v1.07l1.88,2.23l1.89-2.23v-1.07h0.66v0.82
			c0,0.24-0.02,0.42-0.04,0.52c-0.03,0.1-0.1,0.23-0.23,0.38l-1.8,2.11l1.79,2.11c0.13,0.15,0.21,0.28,0.24,0.39
			c0.03,0.1,0.04,0.28,0.04,0.53v0.77h-0.66v-1.03l-1.89-2.21l-1.88,2.21v1.03H51.42z"/>
		<path d="M57.78,25.87v-0.66h5.08v0.66h-2.21v6.98h-0.66v-6.98H57.78z"/>
		<path d="M64.13,32.86v-7.64h5.08v0.66h-4.43v2.84h4.43v0.66h-4.43v2.83h4.43v0.66H64.13z"/>
		<path d="M70.48,32.86v-7.64h0.66l3.77,6.33v-6.33h0.66v7.64H74.9l-3.77-6.33v6.33H70.48z"/>
		<path d="M76.83,32.86v-7.64h3.59c0.42,0,0.77,0.14,1.05,0.44c0.29,0.29,0.43,0.64,0.43,1.06v4.64c0,0.42-0.14,0.77-0.43,1.06
			c-0.28,0.29-0.63,0.44-1.05,0.44H76.83z M77.48,32.2h2.93c0.23,0,0.42-0.08,0.59-0.25s0.25-0.37,0.25-0.6v-4.63
			c0-0.23-0.08-0.44-0.25-0.6c-0.17-0.17-0.36-0.25-0.59-0.25h-2.93V32.2z"/>
		<path d="M83.18,32.86v-7.64h5.08v0.66h-4.42v2.84h4.42v0.66h-4.42v2.83h4.42v0.66H83.18z"/>
		<path d="M89.53,32.86v-7.64h3.29c0.5,0,0.92,0.18,1.26,0.52c0.35,0.35,0.53,0.77,0.53,1.26v0.59c0,0.49-0.18,0.91-0.53,1.26
			c-0.35,0.35-0.77,0.52-1.26,0.52H92.6l1.91,2.14c0.06,0.07,0.1,0.2,0.1,0.36v0.99h-0.65v-0.98l-2.22-2.51h-1.55v3.49H89.53z
			 M90.18,28.71h2.64c0.31,0,0.58-0.11,0.8-0.33c0.22-0.22,0.34-0.49,0.34-0.79V27c0-0.31-0.11-0.58-0.34-0.79
			c-0.22-0.22-0.48-0.33-0.8-0.33h-2.64V28.71z"/>
		<path d="M102.23,32.86v-7.64h3.29c0.5,0,0.91,0.18,1.26,0.52c0.35,0.35,0.52,0.77,0.52,1.26v0.59c0,0.49-0.18,0.91-0.52,1.26
			c-0.35,0.35-0.76,0.52-1.26,0.52h-2.64v3.49H102.23z M102.88,28.71h2.64c0.31,0,0.58-0.11,0.8-0.33c0.22-0.22,0.34-0.49,0.34-0.79
			V27c0-0.31-0.11-0.58-0.34-0.79c-0.22-0.22-0.48-0.33-0.8-0.33h-2.64V28.71z"/>
		<path d="M108.58,32.86v-7.64h0.66v6.98h4.42v0.66H108.58z"/>
		<path d="M114.93,25.22h0.66v6.14c0,0.23,0.08,0.43,0.25,0.6s0.36,0.25,0.59,0.25h2.1c0.22,0,0.42-0.08,0.59-0.25
			s0.25-0.36,0.25-0.59v-6.14h0.65v6.14c0,0.42-0.14,0.77-0.44,1.06c-0.29,0.29-0.64,0.44-1.05,0.44h-2.1
			c-0.42,0-0.77-0.14-1.06-0.44c-0.29-0.29-0.43-0.64-0.43-1.06V25.22z"/>
		<path d="M121.28,26.73c0-0.42,0.14-0.77,0.43-1.06c0.29-0.29,0.64-0.44,1.05-0.44h2.12c0.42,0,0.77,0.15,1.05,0.44
			c0.29,0.29,0.43,0.65,0.43,1.06h-0.65c0-0.23-0.08-0.44-0.25-0.6c-0.16-0.17-0.35-0.25-0.58-0.25h-2.12
			c-0.23,0-0.42,0.08-0.59,0.25c-0.16,0.17-0.24,0.37-0.24,0.6v4.63c0,0.23,0.08,0.43,0.24,0.6c0.16,0.17,0.36,0.25,0.59,0.25h2.11
			c0.23,0,0.42-0.08,0.59-0.25s0.25-0.37,0.25-0.6v-1.99h-1.89v-0.66h2.53v2.65c0,0.42-0.14,0.77-0.43,1.06
			c-0.28,0.29-0.63,0.44-1.05,0.44h-2.11c-0.42,0-0.77-0.14-1.05-0.44c-0.28-0.29-0.43-0.64-0.43-1.06V26.73z"/>
		<path d="M127.63,32.86V32.2h2.21v-6.33h-2.21v-0.66h5.08v0.66h-2.21v6.33h2.21v0.66H127.63z"/>
		<path d="M133.98,32.86v-7.64h0.66l3.77,6.33v-6.33h0.65v7.64h-0.65l-3.77-6.33v6.33H133.98z"/>
	</g>
	<g>
		<path d="M2.83,11.68c0,0.38,0.14,0.7,0.42,0.98c0.29,0.27,0.62,0.41,1.01,0.41H6.7c0.4,0,0.73-0.14,1-0.41
			c0.28-0.27,0.42-0.6,0.42-0.99c0-2.57-7.18-2.34-7.18-6.46c0-0.89,0.32-1.66,0.97-2.29c0.64-0.63,1.43-0.95,2.34-0.95h2.43
			c0.91,0,1.7,0.32,2.33,0.95c0.65,0.62,0.97,1.38,0.97,2.28H8.12c0-0.38-0.14-0.71-0.42-0.98c-0.28-0.28-0.61-0.42-1-0.42H4.25
			c-0.39,0-0.72,0.14-1,0.42C2.97,4.49,2.83,4.81,2.83,5.2c0,2.57,7.17,2.34,7.17,6.46c0,0.89-0.32,1.66-0.98,2.3
			c-0.65,0.63-1.43,0.95-2.34,0.95H4.27c-0.91,0-1.7-0.32-2.35-0.95c-0.65-0.63-0.98-1.39-0.98-2.29H2.83z"/>
		<path d="M11.93,3.79V1.96h9.06v1.83h-3.58v11.12H15.5V3.79H11.93z"/>
		<path d="M22.92,14.91V8.93c0-0.57,0.04-0.95,0.12-1.12l2.49-5.19c0.22-0.5,0.43-0.67,0.99-0.67h1.88c0.27,0,0.47,0.05,0.59,0.14
			c0.12,0.1,0.25,0.27,0.38,0.52l2.51,5.19c0.07,0.16,0.11,0.53,0.11,1.12v5.98H30.1v-2.77h-5.29v2.77H22.92z M24.81,10.29h5.29
			V8.42l-2.17-4.62h-0.88l-2.23,4.62V10.29z"/>
		<path d="M33.91,14.91V1.96h5.76c0.91,0,1.7,0.32,2.33,0.95c0.64,0.63,0.97,1.4,0.97,2.29v0.92c0,0.77-0.25,1.45-0.74,2.04
			c-0.49,0.59-1.1,0.96-1.84,1.12l2.06,2.47c0.17,0.22,0.3,0.42,0.39,0.61c0.08,0.19,0.13,0.33,0.14,0.43
			c0.01,0.1,0.02,0.24,0.02,0.45v1.66h-1.88v-1.85l-3.12-3.69H35.8v5.55H33.91z M35.8,7.52h3.87c0.39,0,0.72-0.14,1-0.41
			c0.29-0.28,0.42-0.61,0.42-0.98V5.2c0-0.39-0.14-0.71-0.42-0.99c-0.28-0.28-0.61-0.42-1-0.42H35.8V7.52z"/>
		<path d="M44.9,14.91V1.96h9.06v1.83h-7.17v3.72h7.17v1.85h-7.17v5.55H44.9z"/>
		<path d="M55.89,14.91v-1.85h3.59V3.79h-3.59V1.96h9.06v1.83h-3.58v9.27h3.58v1.85H55.89z"/>
		<path d="M66.88,14.91V1.96h9.06v1.83h-7.17v3.72h7.17v1.85h-7.17v3.69h7.17v1.85H66.88z"/>
		<path d="M77.87,14.91V1.96h1.89v11.1h7.19v1.85H77.87z"/>
		<path d="M88.86,14.91V1.96h6.23c0.78,0,1.46,0.27,2,0.81c0.55,0.53,0.83,1.18,0.83,1.95v7.42c0,0.77-0.28,1.42-0.83,1.96
			c-0.54,0.54-1.22,0.81-2,0.81H88.86z M90.75,13.06h4.34c0.26,0,0.48-0.09,0.66-0.27c0.19-0.19,0.29-0.41,0.29-0.65v-7.4
			c0-0.52-0.42-0.95-0.95-0.95h-4.34V13.06z"/>
		<path d="M110.84,4.76c0-0.77,0.28-1.43,0.82-1.98c0.55-0.55,1.22-0.82,2-0.82h3.41c0.78,0,1.45,0.27,2,0.82
			c0.55,0.55,0.83,1.21,0.83,1.98h-1.88c0-0.26-0.09-0.49-0.29-0.68c-0.19-0.19-0.42-0.29-0.66-0.29h-3.41
			c-0.25,0-0.47,0.1-0.65,0.29c-0.18,0.19-0.28,0.42-0.28,0.68v7.38c0,0.24,0.09,0.46,0.28,0.65c0.18,0.18,0.41,0.27,0.65,0.27h3.41
			c0.25,0,0.47-0.09,0.66-0.27c0.19-0.19,0.29-0.41,0.29-0.65h1.88c0,0.77-0.28,1.42-0.83,1.96c-0.54,0.54-1.22,0.81-2,0.81h-3.41
			c-0.78,0-1.45-0.27-2-0.8c-0.54-0.54-0.82-1.2-0.82-1.97V4.76z"/>
		<path d="M121.84,4.74c0-0.77,0.28-1.43,0.83-1.97s1.23-0.81,2.01-0.81h3.39c0.78,0,1.45,0.27,2,0.81c0.55,0.54,0.83,1.2,0.83,1.97
			v7.4c0,0.77-0.28,1.42-0.83,1.96c-0.54,0.54-1.22,0.81-2,0.81h-3.39c-0.78,0-1.46-0.27-2.01-0.81c-0.55-0.54-0.83-1.19-0.83-1.96
			V4.74z M123.72,12.14c0,0.24,0.09,0.46,0.29,0.65c0.19,0.18,0.42,0.27,0.66,0.27h3.39c0.25,0,0.47-0.09,0.66-0.27
			c0.19-0.19,0.29-0.41,0.29-0.65v-7.4c0-0.26-0.09-0.48-0.29-0.67s-0.42-0.28-0.66-0.28h-3.39c-0.25,0-0.47,0.09-0.66,0.28
			s-0.29,0.41-0.29,0.67V12.14z"/>
		<path d="M132.83,14.91V1.96h1.89l5.29,9.25V1.96h1.88v12.95h-1.86l-5.31-9.25v9.25H132.83z"/>
		<path d="M145.71,11.68c0,0.38,0.14,0.7,0.42,0.98c0.29,0.27,0.62,0.41,1.01,0.41h2.43c0.4,0,0.73-0.14,1-0.41
			c0.28-0.27,0.41-0.6,0.41-0.99c0-2.57-7.18-2.34-7.18-6.46c0-0.89,0.32-1.66,0.97-2.29c0.64-0.63,1.43-0.95,2.34-0.95h2.43
			c0.91,0,1.7,0.32,2.33,0.95c0.65,0.62,0.97,1.38,0.97,2.28H151c0-0.38-0.14-0.71-0.42-0.98c-0.28-0.28-0.61-0.42-1-0.42h-2.45
			c-0.39,0-0.72,0.14-1,0.42c-0.28,0.28-0.42,0.6-0.42,0.99c0,2.57,7.17,2.34,7.17,6.46c0,0.89-0.32,1.66-0.98,2.3
			c-0.64,0.63-1.43,0.95-2.34,0.95h-2.41c-0.91,0-1.7-0.32-2.35-0.95c-0.65-0.63-0.98-1.39-0.98-2.29H145.71z"/>
		<path d="M154.81,4.74c0-0.77,0.28-1.43,0.83-1.97s1.23-0.81,2.01-0.81h3.39c0.78,0,1.45,0.27,2,0.81c0.55,0.54,0.83,1.2,0.83,1.97
			v7.4c0,0.77-0.28,1.42-0.83,1.96c-0.54,0.54-1.22,0.81-2,0.81h-3.39c-0.78,0-1.46-0.27-2.01-0.81c-0.55-0.54-0.83-1.19-0.83-1.96
			V4.74z M156.7,12.14c0,0.24,0.09,0.46,0.29,0.65c0.19,0.18,0.42,0.27,0.66,0.27h3.39c0.25,0,0.47-0.09,0.66-0.27
			c0.19-0.19,0.29-0.41,0.29-0.65v-7.4c0-0.26-0.09-0.48-0.29-0.67s-0.42-0.28-0.66-0.28h-3.39c-0.25,0-0.47,0.09-0.66,0.28
			s-0.29,0.41-0.29,0.67V12.14z"/>
		<path d="M165.8,14.91V1.96h1.89v11.1h7.19v1.85H165.8z"/>
		<path d="M176.79,14.91V1.96h9.06v1.83h-7.17v3.72h7.17v1.85h-7.17v3.69h7.17v1.85H176.79z"/>
	</g>
</g>
<g>
</g>
<g>
</g>
<g>
</g>
<g>
</g>
<g>
</g>
<g>
</g>
<g>
</g>
<g>
</g>
<g>
</g>
<g>
</g>
<g>
</g>
<g>
</g>
<g>
</g>
<g>
</g>
<g>
</g>
</svg>
